<?xml version="1.0" encoding="utf-8"?>
<!-- Generator: Adobe Illustrator 18.1.1, SVG Export Plug-In . SVG Version: 6.00 Build 0)  -->
<svg version="1.1" id="Слой_1" xmlns="http://www.w3.org/2000/svg" xmlns:xlink="http://www.w3.org/1999/xlink" x="0px" y="0px"
	 viewBox="0 0 86 29" enable-background="new 0 0 86 29" xml:space="preserve">
<path fill="#EDEDED" d="M68.6,0c0.2,0,0.4,0.1,0.5,0.2c0.1,0.1,0.2,0.2,0.2,0.4c3.7,5.5,8.8,9.9,14.9,12.7c0.6,0.3,0.8,0.4,1.2,0.5
	c0,0,0,0,0,0c0.3,0.1,0.5,0.4,0.5,0.8c0,0.3-0.2,0.5-0.4,0.7c-0.1,0-0.2,0.1-0.2,0.1c-0.4,0.2-0.7,0.3-1.1,0.5
	c-6.1,2.8-11.2,7.2-14.9,12.7c-0.1,0.1-0.2,0.2-0.2,0.4C69,28.9,68.8,29,68.6,29H0V0H68.6z"/>
</svg>
